<svg id="Capa_1" data-name="Capa 1" xmlns="http://www.w3.org/2000/svg" viewBox="0 0 1100 737"><defs><style>.cls-1{fill:#070308;fill-rule:evenodd;}</style></defs><title>joinlife-large</title><path id="WORKING_TOWARDS_SUSTAINABILITY" data-name="WORKING TOWARDS SUSTAINABILITY" class="cls-1" d="M1040.27,541.56h13.5c1.49,0,3.07.14,3.07,2.29,0,1.66-.89,2.52-3.21,2.52h-1v3.92h1.77c3.68,0,6.06-2.54,6.06-6.55,0-4.35-2.35-6.53-6.67-6.53h-13.55v4.35Zm-.47-17c0,6.05,4.56,9.71,10.42,9.71s10.27-3.69,10.27-9.71-4.51-9.71-10.27-9.71C1044.25,514.84,1039.8,518.57,1039.8,524.55Zm10.42,5.36c-3.81,0-6.77-1.71-6.77-5.33s3-5.4,6.77-5.4c3.6,0,6.61,1.69,6.61,5.37S1053.9,529.91,1050.22,529.91Zm-10-18H1060v-4.35h-19.75Zm0-8.16H1060v-4.08H1046.8v0l13.22-8.22v-4.34h-19.75v4.06h13.25v.06l-13.25,8.24v4.32Zm0-28.19H1060v-14h-3.65v9.61h-16.1Zm0-16.39H1060V454.8h-19.75Zm0-8.16H1060v-4.35h-8.16v-8.27h-3.38v8.27h-4.57v-9.53h-3.65V451Zm0-16.4H1060v-15h-3.65v10.65h-4.85v-9.56h-3.38v9.56h-4.23V419.82h-3.65v14.77Zm6.4-52.17,14.34-4V377l-12.84-3.61v0l12.84-3.62v-1.45l-14.34-4v1.37l12.55,3.27v0l-12.55,3.52v1.71l12.55,3.49v0L1046.67,381v1.47Zm-.31-26.17c0,4.5,3.52,6.76,7.47,6.76s7.47-2.29,7.47-6.76-3.59-6.75-7.47-6.75-7.46,2.29-7.46,6.75Zm7.47,5.4c-3.33,0-6.3-1.77-6.3-5.38,0-3.82,3.19-5.4,6.3-5.4s6.3,1.64,6.3,5.37-3.14,5.41-6.29,5.41Zm-7.17-14.78H1061v-1.36h-6.36v-5.38a2.29,2.29,0,0,1,.8-1.87,5.16,5.16,0,0,1,2.94-.78,7.39,7.39,0,0,0,2.63-.41v-1.5a6.81,6.81,0,0,1-3.32.64c-1.5.06-3.29.28-3.59,2.53h0a3.45,3.45,0,0,0-3.66-2.79c-2.47,0-3.73,1.83-3.73,4.4v6.52Zm6.81-1.36h-5.64v-5.12a2.7,2.7,0,0,1,2.27-3.06,3.84,3.84,0,0,1,.59,0,2.85,2.85,0,0,1,2.79,2.91v5.29ZM1046.66,333H1061v-1.36h-4.92l-2.55-2.75,7.47-6v-1.77l-8.41,6.71-5.93-6.4v1.84l7.72,8.33h-7.72V333Zm0-13.61H1061V318h-14.34Zm0-4.84H1061v-1.37h-12.13v0l12.13-8.35v-1.53h-14.34v1.37h12.13v0L1046.66,313v1.53Zm-.3-20.75c0,4.52,3.53,6.77,7.47,6.77s7.46-2.33,7.46-6.77a5.14,5.14,0,0,0-2.91-4.95v-.05l2.62-.18v-1h-7.29v6.08h1.16v-4.87h.14a4.72,4.72,0,0,1,5.13,4.29,4.85,4.85,0,0,1,0,.66c0,3.78-3.13,5.41-6.3,5.41s-6.3-1.61-6.3-5.41a4.48,4.48,0,0,1,3.6-4.61V287.8a5.63,5.63,0,0,0-4.78,6Zm.3-13.83h1.17v-5H1061v-1.36h-13.17v-5h-1.16v11.37Zm-.3-19.21c0,4.49,3.51,6.76,7.47,6.76s7.46-2.29,7.46-6.76-3.59-6.75-7.46-6.75-7.46,2.28-7.46,6.74Zm7.47,5.4c-3.34,0-6.31-1.77-6.31-5.38,0-3.82,3.2-5.4,6.31-5.4s6.3,1.64,6.3,5.38-3.14,5.39-6.29,5.39Zm-7.17-13.34,14.33-4v-1.49l-12.83-3.61v0L1061,240v-1.45l-14.33-4V236l12.55,3.28v0l-12.55,3.51v1.71l12.55,3.49v0l-12.55,3.26v1.46Zm0-24,14.33,5.78v-1.47l-4.44-1.73v-6.53l4.45-1.74v-1.47l-14.33,5.62v1.53Zm1.36-.71,7.35-2.76V231Zm-1.36-8.25H1061v-1.37h-6.35v-5.38a2.28,2.28,0,0,1,.8-1.86,5.25,5.25,0,0,1,2.94-.79,7.38,7.38,0,0,0,2.63-.4v-1.5a7,7,0,0,1-3.32.64c-1.5.06-3.29.28-3.59,2.53h0a3.44,3.44,0,0,0-3.66-2.79c-2.47,0-3.73,1.82-3.73,4.39v6.53Zm6.8-1.37h-5.63v-5.12a2.69,2.69,0,0,1,2.27-3,2.32,2.32,0,0,1,.59,0,2.85,2.85,0,0,1,2.79,2.9v5.29Zm-6.8-12.53H1061v-4.7c0-4.62-2.45-6.85-7.16-6.85-5.08,0-7.17,2.59-7.17,6.83v4.72Zm13.17-1.36h-12v-2.85c0-4.14,1.63-6,6-6s6,2,6,5.93v2.89ZM1046.36,187c0,3.8,2.41,4.92,4,4.92,1.93,0,2.93-1.1,3.46-3.23l.8-3.27c.46-1.87,1.26-2.87,2.57-2.87,2,0,2.91,2.21,2.91,3.84,0,2.85-1.1,4.64-3.73,4.64h-.13v1.36h.37c3,0,4.66-2.18,4.66-5.72,0-4.72-2.7-5.48-4.1-5.48-1.91,0-3.13,1.1-3.82,3.87l-.86,3.5a2.24,2.24,0,0,1-2.15,2c-2,0-2.85-1.63-2.85-3.58a3.53,3.53,0,0,1,3.1-3.92h.19v-1.37c-2.82,0-4.44,2.28-4.44,5.31Zm0-19.23c0,3.79,2.41,4.91,4,4.91,1.93,0,2.93-1.1,3.46-3.22l.8-3.28c.46-1.87,1.26-2.87,2.57-2.87,2,0,2.91,2.21,2.91,3.84,0,2.85-1.1,4.64-3.73,4.64h-.13v1.37h.37c3,0,4.66-2.19,4.66-5.73,0-4.72-2.7-5.48-4.1-5.48-1.91,0-3.13,1.11-3.82,3.88l-.86,3.49a2.22,2.22,0,0,1-2.15,2c-2,0-2.85-1.63-2.85-3.58a3.52,3.52,0,0,1,3.1-3.91l.19,0v-1.37c-2.82,0-4.44,2.28-4.44,5.31Zm.3-8.36h9.14a5.57,5.57,0,0,0,0-11.14h-9.14v1.36h8.88c3.09,0,4.6,1.33,4.6,4.22s-1.69,4.2-4.58,4.2h-8.9Zm-.3-19.05c0,3.79,2.41,4.91,4,4.91,1.93,0,2.93-1.1,3.46-3.22l.8-3.28c.46-1.86,1.26-2.87,2.57-2.87,2,0,2.91,2.21,2.91,3.84,0,2.85-1.1,4.64-3.73,4.64h-.13v1.37h.37c3,0,4.66-2.19,4.66-5.73,0-4.72-2.7-5.48-4.1-5.48-1.91,0-3.13,1.11-3.82,3.88l-.86,3.49a2.22,2.22,0,0,1-2.15,2c-2,0-2.85-1.63-2.85-3.58a3.52,3.52,0,0,1,3.1-3.91l.19,0v-1.37c-2.82,0-4.44,2.28-4.44,5.31Zm.3-6.95h1.17v-5H1061v-1.37h-13.17v-5h-1.16v11.37Zm0-16.05,14.34,5.79V121.7l-4.46-1.73v-6.52l4.46-1.75v-1.47l-14.34,5.63Zm1.37-.7,7.35-2.77v5.65Zm-1.37-8.35H1061V107h-14.34Zm0-4.84H1061v-1.37h-12.13v0L1061,93.73V92.2h-14.34v1.37h12.13v0L1046.66,102Zm0-18.86L1061,90.41V88.93l-4.46-1.72V80.68l4.46-1.74V77.47l-14.34,5.62v1.53Zm1.37-.7,7.35-2.77v5.62Zm-1.37-8.26H1061v-6.1c0-3.31-1.42-5.12-4.08-5.12a3.36,3.36,0,0,0-3.49,3h0a3.26,3.26,0,0,0-3.23-2.49c-2.43,0-3.49,1.87-3.49,4.6v6.07Zm6.29-1.36h-5.12V69.62c0-2.15.89-3.25,2.69-3.25,1.47,0,2.43,1.23,2.43,3.21V74.3Zm6.89,0h-5.72v-4.7c0-2.43.94-3.78,2.76-3.78,2,0,2.95,1.35,2.95,3.76v4.72Zm-13.18-12.64H1061V60.31h-14.34Zm0-4.85H1061v-9.4h-1.16v8h-13.18v1.38Zm0-11.39H1061V44.06h-14.34Zm0-3.31h1.17v-5H1061V35.75h-13.17v-5h-1.16V42.11Zm0-11.57,8.44-5.65h5.9V23.54h-5.9l-8.43-5.66V19.5l7.27,4.7-7.27,4.72v1.62Z"/></svg>